<?xml version="1.0" encoding="UTF-8"?>
<svg width="64px" height="65px" viewBox="0 0 64 65" version="1.1" xmlns="http://www.w3.org/2000/svg" xmlns:xlink="http://www.w3.org/1999/xlink">
    <!-- Generator: Sketch 3.8.3 (29802) - http://www.bohemiancoding.com/sketch -->
    <title>Fill 26</title>
    <desc>Created with Sketch.</desc>
    <defs></defs>
    <g id="Page-1" stroke="none" stroke-width="1" fill="none" fill-rule="evenodd">
        <g id="64x64_knockout_circles" transform="translate(-10.000000, -13.000000)" fill="#FFFFFF">
            <path d="M27.578,36.925 L38.171,46.085 L27.578,53.995 L27.578,36.925 L27.578,36.925 Z M29.243,34.583 L54.962,34.583 C56.349,34.583 56.349,35.325 56.349,35.325 L43.628,45.177 C43.259,45.548 42.843,45.64 42.01,45.64 C41.177,45.64 40.529,44.945 40.529,44.945 L28.04,35.093 C28.434,34.7 29.243,34.583 29.243,34.583 L29.243,34.583 Z M56.627,53.995 L45.941,46.269 L56.627,37.249 L56.627,53.995 L56.627,53.995 Z M28.226,54.642 L38.864,46.64 C38.864,46.64 40.622,48.536 42.194,48.536 C43.768,48.536 45.387,46.64 45.387,46.64 L55.701,54.642 L28.226,54.642 L28.226,54.642 Z M42,77.112 C59.673,77.112 74,62.786 74,45.112 C74,27.439 59.673,13.112 42,13.112 C24.327,13.112 10,27.439 10,45.112 C10,62.786 24.327,77.112 42,77.112 L42,77.112 Z" id="Fill-26"></path>
        </g>
    </g>
</svg>