<?xml version="1.0" encoding="UTF-8"?>
<svg width="65px" height="65px" viewBox="0 0 65 65" version="1.1" xmlns="http://www.w3.org/2000/svg" xmlns:xlink="http://www.w3.org/1999/xlink">
    <!-- Generator: Sketch 3.8.3 (29802) - http://www.bohemiancoding.com/sketch -->
    <title>Fill 4</title>
    <desc>Created with Sketch.</desc>
    <defs></defs>
    <g id="Page-1" stroke="none" stroke-width="1" fill="none" fill-rule="evenodd">
        <g id="64x64_knockout_circles" transform="translate(-232.000000, -13.000000)" fill="#FFFFFF">
            <path d="M256.65,41.304 L261.026,41.304 L261.026,37.246 C261.026,37.246 260.843,34.595 262.855,32.582 C264.867,30.57 267.576,30.761 271.433,31.096 L271.433,35.625 L268.582,35.625 C268.582,35.625 267.384,35.601 266.82,36.247 C266.258,36.895 266.318,37.818 266.318,38.045 L266.318,41.304 L271.266,41.304 L270.63,46.348 L266.293,46.348 L266.293,59.341 L261.046,59.341 L261.046,46.323 L256.65,46.323 L256.65,41.304 L256.65,41.304 Z M264.041,77.112 C281.715,77.112 296.041,62.786 296.041,45.112 C296.041,27.439 281.715,13.112 264.041,13.112 C246.367,13.112 232.041,27.439 232.041,45.112 C232.041,62.786 246.367,77.112 264.041,77.112 L264.041,77.112 Z" id="Fill-4"></path>
        </g>
    </g>
</svg>