<?xml version="1.0" encoding="UTF-8"?>
<svg width="65px" height="65px" viewBox="0 0 65 65" version="1.1" xmlns="http://www.w3.org/2000/svg" xmlns:xlink="http://www.w3.org/1999/xlink">
    <!-- Generator: Sketch 3.8.3 (29802) - http://www.bohemiancoding.com/sketch -->
    <title>Fill 49</title>
    <desc>Created with Sketch.</desc>
    <defs></defs>
    <g id="Page-1" stroke="none" stroke-width="1" fill="none" fill-rule="evenodd">
        <g id="64x64_knockout_circles" transform="translate(-232.000000, -235.000000)" fill="#FFFFFF">
            <path d="M264.04,253.255 C271.865,253.255 278.21,259.599 278.21,267.423 C278.21,273.794 274.007,279.18 268.223,280.965 C267.547,280.763 267.551,280.163 267.551,280.163 C267.551,280.163 267.602,277.043 267.602,275.951 C267.602,274.86 266.666,273.611 266.666,273.611 C272.179,273.169 273.062,269.555 273.062,266.956 C273.062,264.356 271.58,262.952 271.58,262.952 C272.101,260.742 271.476,259.313 271.476,259.313 C268.954,259.599 267.707,260.847 267.707,260.847 C267.707,260.847 266.068,260.249 263.988,260.249 C261.909,260.249 260.557,260.82 260.557,260.82 C258.581,259.105 256.684,259.339 256.684,259.339 C256.06,261.106 256.645,263.03 256.645,263.03 C255.084,264.629 255.123,267.281 255.123,267.281 C255.356,273.56 261.479,273.657 261.479,273.657 C260.544,274.476 260.738,275.646 260.738,275.646 C260.642,275.665 260.485,275.762 260.115,275.938 C259.744,276.113 258.965,275.977 258.965,275.977 C257.287,275.977 256.801,274.768 256.449,274.339 C256.099,273.91 255.768,273.521 255.337,273.267 C254.908,273.013 253.661,272.76 253.778,273.344 C253.895,273.93 254.947,273.637 255.611,275.256 C256.274,276.874 256.897,277.361 257.774,277.693 C258.652,278.024 260.563,277.732 260.563,277.732 L260.563,280.54 C260.388,280.949 259.92,280.949 259.92,280.949 L259.899,280.977 C254.095,279.206 249.871,273.808 249.871,267.423 C249.871,259.599 256.216,253.255 264.04,253.255 L264.04,253.255 Z M264.041,299.116 C281.715,299.116 296.041,284.789 296.041,267.116 C296.041,249.443 281.715,235.116 264.041,235.116 C246.367,235.116 232.041,249.443 232.041,267.116 C232.041,284.789 246.367,299.116 264.041,299.116 L264.041,299.116 Z" id="Fill-49"></path>
        </g>
    </g>
</svg>