<?xml version="1.0" encoding="UTF-8"?>
<svg width="65px" height="65px" viewBox="0 0 65 65" version="1.1" xmlns="http://www.w3.org/2000/svg" xmlns:xlink="http://www.w3.org/1999/xlink">
    <!-- Generator: Sketch 3.8.3 (29802) - http://www.bohemiancoding.com/sketch -->
    <title>Fill 12</title>
    <desc>Created with Sketch.</desc>
    <defs></defs>
    <g id="Page-1" stroke="none" stroke-width="1" fill="none" fill-rule="evenodd">
        <g id="64x64_knockout_circles" transform="translate(-306.000000, -13.000000)" fill="#FFFFFF">
            <path d="M348.752,48.06 L348.752,55.804 L344.276,55.804 L344.276,48.454 C344.276,47.622 344.463,45.103 341.798,45.103 C339.132,45.103 339.299,48.435 339.299,48.435 L339.299,55.804 L334.864,55.804 L334.864,41.522 L339.132,41.522 L339.132,43.541 C340.278,41.667 342.443,40.606 345.733,41.522 C349.022,42.437 348.752,48.06 348.752,48.06 L348.752,48.06 Z M329.864,39.578 C328.44,39.578 327.285,38.425 327.285,37 C327.285,35.575 328.44,34.421 329.864,34.421 C331.287,34.421 332.442,35.575 332.442,37 C332.442,38.425 331.287,39.578 329.864,39.578 L329.864,39.578 Z M327.618,55.804 L332.073,55.804 L332.073,41.522 L327.618,41.522 L327.618,55.804 Z M338.021,13.112 C320.348,13.112 306.021,27.439 306.021,45.112 C306.021,62.786 320.348,77.112 338.021,77.112 C355.695,77.112 370.021,62.786 370.021,45.112 C370.021,27.439 355.695,13.112 338.021,13.112 L338.021,13.112 Z" id="Fill-12"></path>
        </g>
    </g>
</svg>