<?xml version="1.0" encoding="UTF-8"?>
<svg width="65px" height="65px" viewBox="0 0 65 65" version="1.1" xmlns="http://www.w3.org/2000/svg" xmlns:xlink="http://www.w3.org/1999/xlink">
    <!-- Generator: Sketch 3.8.3 (29802) - http://www.bohemiancoding.com/sketch -->
    <title>Fill 109</title>
    <desc>Created with Sketch.</desc>
    <defs></defs>
    <g id="Page-1" stroke="none" stroke-width="1" fill="none" fill-rule="evenodd">
        <g id="64x64_knockout_circles" transform="translate(-379.000000, -679.000000)" fill="#FFFFFF">
            <path d="M421.287,709.035 L419.248,697.401 L421.734,696.978 L423.75,708.611 L421.287,709.035 L421.287,709.035 Z M418.73,710.582 L412.047,700.872 L414.158,699.441 L420.818,709.175 L418.73,710.582 L418.73,710.582 Z M419.764,726.929 L400.25,726.929 L400.25,714.687 L402.219,714.687 L402.219,724.959 L417.793,724.959 L417.793,714.592 L419.764,714.592 L419.764,726.929 L419.764,726.929 Z M403.885,722.942 L415.752,722.942 L415.752,720.41 L403.885,720.41 L403.885,722.942 Z M404.189,716.07 L416.01,717.149 L415.775,719.705 L403.979,718.627 L404.189,716.07 L404.189,716.07 Z M405.387,710.769 L416.762,713.888 L416.129,716.375 L404.729,713.232 L405.387,710.769 L405.387,710.769 Z M408.107,704.976 L418.334,710.933 L417.02,713.185 L406.793,707.111 L408.107,704.976 L408.107,704.976 Z M411.52,679.933 C393.846,679.933 379.52,694.259 379.52,711.933 C379.52,729.607 393.846,743.933 411.52,743.933 C429.193,743.933 443.52,729.607 443.52,711.933 C443.52,694.259 429.193,679.933 411.52,679.933 L411.52,679.933 Z" id="Fill-109"></path>
        </g>
    </g>
</svg>